<svg xmlns="http://www.w3.org/2000/svg" viewBox="0 0 194.33 191.15"><title>Recurso 2</title><g id="Capa_2" data-name="Capa 2"><g id="Capa_1-2" data-name="Capa 1"><path d="M0,71.46c.5-3.12.88-6.25,1.52-9.33C6.17,39.79,18.34,22.68,37.77,10.85,51.7,2.37,67-.94,83.17.23a76.93,76.93,0,0,1,68.12,56.16c6.52,24.2,2.22,46.61-12.58,66.93L137.5,125a28.53,28.53,0,0,1,2.23,1.86q25.92,26,51.81,52c1.79,1.79,3.1,3.73,2.73,6.37a6.5,6.5,0,0,1-4.58,5.58,6.57,6.57,0,0,1-7.13-1.85q-7-7-14-14.06l-39-39.19c-.31-.31-.64-.6-1.11-1-1.27,1-2.52,2.07-3.8,3.07A75.72,75.72,0,0,1,73,154.12C37.23,152.44,7,125.38,1.13,90,.72,87.52.37,85,0,82.51Zm13.44,5.67c.11,35.11,28.73,63.74,63.62,63.64a63.77,63.77,0,0,0,63.66-64c-.09-35-28.79-63.41-64.08-63.32C42,13.56,13.33,42.38,13.44,77.13Z"/><path d="M45.69,35.38a6.24,6.24,0,0,1,3.14-5.73A55.39,55.39,0,0,1,110.36,33a6.66,6.66,0,0,1,2.81,7.34,6.46,6.46,0,0,1-5.41,5,7,7,0,0,1-5.66-1.64,41.95,41.95,0,0,0-45.69-2.9c-2,1.11-3.94,1.69-6.16.91A6.61,6.61,0,0,1,45.69,35.38Z"/></g></g></svg>